<?xml version="1.0" encoding="utf-8"?>
<!-- Generator: Adobe Illustrator 24.2.0, SVG Export Plug-In . SVG Version: 6.00 Build 0)  -->
<svg version="1.1" id="NavigationBar" xmlns="http://www.w3.org/2000/svg" xmlns:xlink="http://www.w3.org/1999/xlink" x="0px"
	 y="0px" width="1920px" height="129.4px" viewBox="0 0 1920 129.4" style="enable-background:new 0 0 1920 129.4;"
	 xml:space="preserve">
<style type="text/css">
	.st0{fill:#FFDB8A;}
	.st1{clip-path:url(#SVGID_2_);}
	.st2{clip-path:url(#SVGID_4_);}
	.st3{fill:#3D3356;}
	.st4{fill:#BA365D;}
	.st5{fill:#F89D61;}
	.st6{fill:#FFFFFF;}
</style>
<rect id="Rectangle_13" class="st0" width="1920" height="128"/>
<g id="Group_28" transform="translate(1150.489 -237)">
	<g id="Group_27" transform="translate(-226 237)">
		<g id="Group_26">
			<g>
				<defs>
					<rect id="SVGID_1_" x="0" width="1147.5" height="129.4"/>
				</defs>
				<clipPath id="SVGID_2_">
					<use xlink:href="#SVGID_1_"  style="overflow:visible;"/>
				</clipPath>
				<g id="Group_25" class="st1">
					<g id="Group_24" transform="translate(0 -176.728)">
						<g>
							<defs>
								<rect id="SVGID_3_" x="0" y="0" width="1147.5" height="593.8"/>
							</defs>
							<clipPath id="SVGID_4_">
								<use xlink:href="#SVGID_3_"  style="overflow:visible;"/>
							</clipPath>
							<g id="Group_23" transform="translate(0 0)" class="st2">
								<g id="Group_22" transform="translate(-118.216 -383.815)">
									<path id="Path_37" class="st3" d="M694.5,460.8H573.1c-44.5,44.7-84.5,93.8-119.3,146.4h2.5c54.6,0,98.9,44.3,98.9,98.9
										v456.4h238.4V559.7c0-54.6-44.3-98.9-98.9-98.9"/>
									<path id="Path_38" class="st4" d="M813.8,49.5c-27.3-47.3-87.7-63.6-135-36.3c0,0,0,0,0,0c-15.1,8.7-27.6,21.2-36.3,36.3
										L320.6,607.2h133.2C566.4,437,730.7,307.5,922.5,237.7L813.8,49.5z"/>
									<path id="Path_39" class="st5" d="M276.2,884.8c-0.1-105.1,43.3-205.6,119.8-277.6h-75.6L0,1162.4h396
										C319.5,1090.4,276.1,989.9,276.2,884.8z"/>
									<path id="Path_40" class="st6" d="M456.3,607.2H396c-153.3,144.5-160.5,385.9-16,539.2c5.2,5.5,10.5,10.8,16,16h159.2
										V706.1C555.2,651.5,511,607.2,456.3,607.2L456.3,607.2z"/>
								</g>
							</g>
						</g>
					</g>
				</g>
			</g>
		</g>
		<rect id="Rectangle_14" x="675.4" y="0" class="st5" width="320.1" height="129.4"/>
	</g>
</g>
</svg>
