<svg id="Layer_1" data-name="Layer 1" xmlns="http://www.w3.org/2000/svg" viewBox="0 0 817.63 310"><defs><style>.cls-1{fill:#f18a00;}.cls-2{fill:#009877;}.cls-3{fill:#e1251b;}.cls-4{fill:#1d252c;}</style></defs><title>SMEX Logomark + Tagline Horizontal</title><path class="cls-1" d="M146.49,186.94A11.06,11.06,0,0,0,136,179.28H106.81l23.58-17.16a11.08,11.08,0,0,0,4-12.4l-9-27.77L149,139.11a11.06,11.06,0,0,0,13,0L185.59,122l-9,27.77a11.07,11.07,0,0,0,4,12.4l23.58,17.16H175a11.06,11.06,0,0,0-10.54,7.66l-9,27.76Z"/><path class="cls-1" d="M152.47.84a77.22,77.22,0,0,0-13.15,10,5.86,5.86,0,0,0-1.64,5.7l2.48,9.75a5.84,5.84,0,0,0,2.47,3.46l9.64,6.32a5.85,5.85,0,0,0,6.42,0l9.64-6.32a5.84,5.84,0,0,0,2.47-3.46l2.48-9.77a5.85,5.85,0,0,0-1.62-5.68A75.44,75.44,0,0,0,158.5.83,5.85,5.85,0,0,0,152.47.84Z"/><path class="cls-1" d="M.15,116.08a78.18,78.18,0,0,0,5.43,15.61A5.88,5.88,0,0,0,10.49,135l10,.66a5.91,5.91,0,0,0,4.06-1.29l9-7.23a5.86,5.86,0,0,0,2-6.11l-3-11.14A5.81,5.81,0,0,0,30,106.48l-8.51-5.38a5.83,5.83,0,0,0-5.9-.21A74.35,74.35,0,0,0,2,110.33,5.88,5.88,0,0,0,.15,116.08Z"/><path class="cls-1" d="M62.52,296.76a77.73,77.73,0,0,0,16.5-.35,5.84,5.84,0,0,0,4.67-3.65l3.72-9.34a5.85,5.85,0,0,0,0-4.26l-4.09-10.79a5.88,5.88,0,0,0-5.19-3.78L66.65,264a5.86,5.86,0,0,0-4,1.34l-7.74,6.45a5.86,5.86,0,0,0-2,5.55,75.82,75.82,0,0,0,4.77,15.84A5.87,5.87,0,0,0,62.52,296.76Z"/><path class="cls-1" d="M253.38,293.19a77.43,77.43,0,0,0,4.77-15.83,5.87,5.87,0,0,0-2-5.57l-7.73-6.44a5.84,5.84,0,0,0-4-1.34l-11.51.56a5.84,5.84,0,0,0-5.19,3.78l-4.1,10.79a5.83,5.83,0,0,0,0,4.25l3.72,9.36A5.86,5.86,0,0,0,232,296.4a75.33,75.33,0,0,0,16.52.35A5.87,5.87,0,0,0,253.38,293.19Z"/><path class="cls-1" d="M309,110.3a77.47,77.47,0,0,0-13.56-9.43,5.84,5.84,0,0,0-5.92.2L281,106.44a5.93,5.93,0,0,0-2.53,3.42l-3,11.15a5.86,5.86,0,0,0,2,6.1l9,7.24a5.85,5.85,0,0,0,4.06,1.28l10-.66a5.83,5.83,0,0,0,4.9-3.3,75.78,75.78,0,0,0,5.43-15.62A5.88,5.88,0,0,0,309,110.3Z"/><path class="cls-2" d="M129.05,34.07l-17-12.31a5.62,5.62,0,0,0-8.64,2.8c-3.52,10.77-9.85,30.11-11.67,34.7A19.9,19.9,0,0,1,86,67.65a19.68,19.68,0,0,1-9.75,2.89c-4.92.32-25.24.37-36.56.4a5.63,5.63,0,0,0-5.33,7.36l6.44,20a2.5,2.5,0,0,0,.93,1.26l9,6.44a8.46,8.46,0,0,0,10-.09l16.12-12c4.11-3.06,9.31-5.89,14.36-6.85,3.29-.63,6.56.4,9.7,1.1.3-3.21.34-6.64,1.94-9.58,2.48-4.51,6.78-8.58,11-11.56l16.35-11.65a8.51,8.51,0,0,0,3.17-9.47L130,35.34A2.56,2.56,0,0,0,129.05,34.07Z"/><path class="cls-2" d="M24.47,148.65,7.54,161a5.63,5.63,0,0,0,0,9.09c9.14,6.68,25.55,18.69,29.34,21.84,4.45,3.69,5.9,7.25,6.19,8.08a19.79,19.79,0,0,1-.26,10.18c-1.23,4.78-7.46,24.15-10.93,34.94a5.63,5.63,0,0,0,5.35,7.35l21,0a2.56,2.56,0,0,0,1.49-.49l8.9-6.59a8.51,8.51,0,0,0,3-9.53l-6.39-19c-1.63-4.87-2.72-10.69-2.07-15.8.42-3.32,2.41-6.12,4-8.9-3-1.27-6.21-2.37-8.5-4.81-3.52-3.75-6.06-9.1-7.59-14L45,154.2a8.46,8.46,0,0,0-8-5.94L26,148.17A2.41,2.41,0,0,0,24.47,148.65Z"/><path class="cls-2" d="M101,283.66l6.51,19.95a5.62,5.62,0,0,0,8.63,2.82c9.18-6.64,25.65-18.56,29.81-21.21,4.88-3.09,8.71-3.37,9.59-3.39s4.7.3,9.58,3.39c4.17,2.65,20.64,14.57,29.81,21.21a5.62,5.62,0,0,0,8.63-2.82L210,283.66a2.48,2.48,0,0,0,0-1.57l-3.5-10.51a8.48,8.48,0,0,0-8.12-5.79l-20.06.2c-5.13.05-11-.71-15.65-2.91-3-1.43-5.07-4.19-7.19-6.6-2.13,2.41-4.18,5.17-7.2,6.6-4.65,2.2-10.52,3-15.64,2.91l-20.07-.2a8.45,8.45,0,0,0-8.11,5.79L101,282.09A2.55,2.55,0,0,0,101,283.66Z"/><path class="cls-2" d="M252.82,252.53l20.95,0a5.63,5.63,0,0,0,5.35-7.35c-3.47-10.79-9.7-30.16-10.92-34.94-1.44-5.6-.52-9.34-.26-10.18s1.73-4.39,6.18-8.08c3.8-3.15,20.21-15.16,29.35-21.84a5.63,5.63,0,0,0,0-9.09l-16.93-12.36a2.41,2.41,0,0,0-1.48-.48l-11.07.09a8.47,8.47,0,0,0-8,5.94l-6,19.17c-1.54,4.9-4.07,10.25-7.6,14-2.29,2.44-5.54,3.54-8.49,4.81,1.63,2.78,3.62,5.58,4,8.9.65,5.11-.44,10.93-2.07,15.8l-6.39,19a8.5,8.5,0,0,0,3,9.53l8.9,6.59A2.55,2.55,0,0,0,252.82,252.53Z"/><path class="cls-2" d="M270.18,98.27l6.44-20a5.63,5.63,0,0,0-5.33-7.36c-11.31,0-31.64-.08-36.56-.4-5.76-.36-9-2.39-9.74-2.89a19.71,19.71,0,0,1-5.76-8.39c-1.82-4.59-8.15-23.93-11.68-34.7a5.61,5.61,0,0,0-8.63-2.8l-17,12.31a2.48,2.48,0,0,0-.91,1.27L177.7,45.9a8.49,8.49,0,0,0,3.16,9.47L197.21,67c4.17,3,8.47,7,10.95,11.56,1.61,2.94,1.65,6.37,2,9.58,3.13-.7,6.41-1.73,9.69-1.1,5.06,1,10.25,3.79,14.36,6.85l16.12,12a8.46,8.46,0,0,0,10,.09l9-6.44A2.48,2.48,0,0,0,270.18,98.27Z"/><path class="cls-3" d="M196,87.17c-1-2.06-4.76-7.45-18.58-15.89-18-11-13.56-23.7-13.56-23.7a15.95,15.95,0,0,1-16.73,0s4.47,12.69-13.55,23.7C119.74,79.72,116,85.11,115,87.17a2.53,2.53,0,0,0-.18,1.69l2.91,12.31a2.58,2.58,0,0,0,1,1.5l35,24.58a3,3,0,0,0,3.49,0l35-24.58a2.52,2.52,0,0,0,1-1.5l2.91-12.31A2.53,2.53,0,0,0,196,87.17Z"/><path class="cls-3" d="M95.58,101.31c-2.26.32-8.55,2.23-20.83,12.79-16,13.76-26.7,5.58-26.7,5.58a16,16,0,0,1-5.17,15.94s13.44-.34,18.32,20.23c3.74,15.77,7.71,21,9.35,22.61a2.57,2.57,0,0,0,1.55.69l12.59,1a2.58,2.58,0,0,0,1.74-.5l34.16-25.75a3.05,3.05,0,0,0,1.08-3.32l-12.53-40.94a2.54,2.54,0,0,0-1.11-1.43l-10.79-6.58A2.54,2.54,0,0,0,95.58,101.31Z"/><path class="cls-3" d="M78,201.3c-.4,2.26-.53,8.84,5.7,23.8,8.12,19.51-2.94,27.15-2.94,27.15a16,16,0,0,1,13.53,9.85s3.84-12.91,24.88-11.2c16.13,1.31,22.34-.84,24.36-1.92a2.52,2.52,0,0,0,1.13-1.26L149.52,236a2.56,2.56,0,0,0,.06-1.81l-13.89-40.49a3,3,0,0,0-2.83-2.05L90.12,191a2.55,2.55,0,0,0-1.7.61l-9.59,8.25A2.5,2.5,0,0,0,78,201.3Z"/><path class="cls-3" d="M167.51,249c2,1.07,8.22,3.23,24.36,1.92,21-1.71,24.87,11.19,24.87,11.19a16,16,0,0,1,13.54-9.84s-11.07-7.64-2.95-27.16c6.23-15,6.1-21.54,5.71-23.79a2.56,2.56,0,0,0-.85-1.47l-9.58-8.25a2.59,2.59,0,0,0-1.7-.61l-42.75.72a3,3,0,0,0-2.82,2.05l-13.9,40.49a2.56,2.56,0,0,0,.06,1.81l4.87,11.68A2.54,2.54,0,0,0,167.51,249Z"/><path class="cls-3" d="M240.43,178.42c1.64-1.59,5.61-6.84,9.35-22.61,4.88-20.56,18.32-20.23,18.32-20.23a16,16,0,0,1-5.17-15.93s-10.68,8.18-26.7-5.59c-12.28-10.55-18.57-12.47-20.83-12.78a2.48,2.48,0,0,0-1.66.35L203,108.21a2.52,2.52,0,0,0-1.11,1.43l-12.53,40.93a3.06,3.06,0,0,0,1.08,3.33l34.16,25.74a2.53,2.53,0,0,0,1.74.5l12.59-1A2.46,2.46,0,0,0,240.43,178.42Z"/><path class="cls-4" d="M393.86,130.47c16.75,5.64,31.95,11.45,31.95,25.12,0,12.47-14.35,19.48-30.58,19.48-9.74,0-19.48-2.73-26.32-7.52a7.35,7.35,0,0,0-4.44-1.54,5.21,5.21,0,0,0-5.3,5.3,5.83,5.83,0,0,0,2.73,4.78A64.19,64.19,0,0,0,395.23,186c18.62,0,41.52-8.71,41.52-30.59,0-21.54-20.17-29-36.74-34.69-15.21-5.13-30.42-11.45-30.42-24.27,0-13.15,13.16-20.85,28.37-20.85a40.34,40.34,0,0,1,23.76,8.21,5.61,5.61,0,0,0,9.22-3.94,6.1,6.1,0,0,0-2.56-4.6,48.75,48.75,0,0,0-30.93-10.6c-19,0-38.79,10.93-38.79,31.44C358.66,115.77,377.8,125,393.86,130.47Z"/><path class="cls-4" d="M569.87,94.93H570l-.5,14.18v64.08c0,6.49,3.24,12,9.56,12a5.58,5.58,0,0,0,5.81-5.47,5.37,5.37,0,0,0-3.25-5,2.31,2.31,0,0,1-1.19-2.22V78.18A2.31,2.31,0,0,1,581.66,76,5.38,5.38,0,0,0,584.91,71a5.59,5.59,0,0,0-5.81-5.48,8.84,8.84,0,0,0-8,5c-.17.34-.34.68-48.87,85.27-48.53-84.59-48.7-84.93-48.87-85.27a8.84,8.84,0,0,0-8-5A5.59,5.59,0,0,0,459.48,71,5.39,5.39,0,0,0,462.73,76a2.31,2.31,0,0,1,1.19,2.22v94.33a2.31,2.31,0,0,1-1.19,2.22,5.38,5.38,0,0,0-3.25,5,5.59,5.59,0,0,0,5.81,5.47c6.33,0,9.58-5.47,9.58-12V109.11l-.52-14.18h.17l7.52,14,35.37,60.84a5.4,5.4,0,0,0,9.57,0l35.21-60.67Z"/><path class="cls-4" d="M693.26,174.22H625.94a4.52,4.52,0,0,0,.85-3.25V132.35h53.14a5.4,5.4,0,0,0,5.48-5.47,5.51,5.51,0,0,0-5.48-5.47H626.79V79.72c0-1,0-2.4-.85-3.25H690A5.41,5.41,0,0,0,695.49,71,5.52,5.52,0,0,0,690,65.53h-72.8A5.58,5.58,0,0,0,611.41,71a5.38,5.38,0,0,0,3.25,5,2.31,2.31,0,0,1,1.19,2.22v94.33a2.31,2.31,0,0,1-1.19,2.22,5.36,5.36,0,0,0-3.25,5,5.58,5.58,0,0,0,5.81,5.47h76a5.54,5.54,0,0,0,5.47-5.64A5.25,5.25,0,0,0,693.26,174.22Z"/><path class="cls-4" d="M723.35,173.71a5.65,5.65,0,0,0-5.47,5.64c0,3.92,3.58,5.81,7.18,5.81,4.1,0,7.35-3.08,9.74-6.33l21.7-30.59L765,134.57l8.55,13.67,21.7,30.59c1.88,2.56,4.27,5.29,7.52,6.15a8.57,8.57,0,0,0,2.22.18c3.76,0,7.17-2.23,7.17-5.81a5.65,5.65,0,0,0-5.46-5.64,3.09,3.09,0,0,1-2.74-1.54l-32.47-46.32,32.64-47.67a3.36,3.36,0,0,1,2.91-1.54c3.25,0,5-2.73,5-5.64,0-3.76-3.42-5.47-6.84-5.47-4.28,0-7.35,2.74-9.74,6.16L773.41,103.3,765,117.14,756.5,103.3,734.62,71.69c-2.39-3.42-5.46-6.16-9.73-6.16-3.43,0-6.85,1.71-6.85,5.47,0,2.91,1.71,5.64,5,5.64a3.36,3.36,0,0,1,2.91,1.54l32.64,47.67-32.47,46.32A3.09,3.09,0,0,1,723.35,173.71Z"/><path class="cls-4" d="M370.64,281.06a6.63,6.63,0,0,0-2.7-1.79,11.68,11.68,0,0,0-4.11-.63,22.34,22.34,0,0,0-4,.33,13.12,13.12,0,0,0-2.61.67l.48,3.35a12.52,12.52,0,0,1,2.24-.59,19.92,19.92,0,0,1,3.5-.28,6,6,0,0,1,2.55.46,3.86,3.86,0,0,1,1.54,1.22,4.47,4.47,0,0,1,.79,1.74,9.38,9.38,0,0,1,.21,2v1.13c-.11,0-.32-.08-.6-.13l-1-.2c-.39-.07-.8-.13-1.24-.17a10.88,10.88,0,0,0-1.26-.07,16.6,16.6,0,0,0-3.65.39,9.6,9.6,0,0,0-3.05,1.22,6,6,0,0,0-2.06,2.18,6.38,6.38,0,0,0-.77,3.21,7.73,7.73,0,0,0,.66,3.35,5.59,5.59,0,0,0,1.82,2.24,7.81,7.81,0,0,0,2.79,1.24,14.93,14.93,0,0,0,3.52.4c.9,0,1.81,0,2.72-.11L369,302c.78-.09,1.48-.18,2.1-.29l1.46-.23V287.3a13.16,13.16,0,0,0-.43-3.5A6.71,6.71,0,0,0,370.64,281.06Zm-2.07,17.55a12.58,12.58,0,0,1-1.84.24q-1.11.06-2.55.06a7.18,7.18,0,0,1-3.78-.85,3.24,3.24,0,0,1-1.4-3,3,3,0,0,1,.57-1.89A4,4,0,0,1,361,292a6,6,0,0,1,1.87-.55,16.77,16.77,0,0,1,1.94-.13,14.54,14.54,0,0,1,2.37.16,5,5,0,0,1,1.41.37Z"/><path class="cls-4" d="M394.11,280.21a10.63,10.63,0,0,0-2.24-1,11.36,11.36,0,0,0-7.79.34,9.19,9.19,0,0,0-3.2,2.44,10.7,10.7,0,0,0-2,3.74,16.12,16.12,0,0,0-.67,4.79,14.16,14.16,0,0,0,.81,4.93,10.14,10.14,0,0,0,2.28,3.72,10,10,0,0,0,3.57,2.35,12.64,12.64,0,0,0,4.69.83,28.64,28.64,0,0,0,5-.39,35.2,35.2,0,0,0,3.56-.79v-32.4h-4Zm0,18.09a12.28,12.28,0,0,1-1.72.33,21.16,21.16,0,0,1-2.76.15,6.71,6.71,0,0,1-5.22-2.15,8.75,8.75,0,0,1-2-6.11,14.84,14.84,0,0,1,.35-3.27,7.38,7.38,0,0,1,1.13-2.63,5.49,5.49,0,0,1,2-1.74,6.52,6.52,0,0,1,3-.63,8,8,0,0,1,3.05.57,8.56,8.56,0,0,1,2.13,1.17Z"/><path class="cls-4" d="M417.62,283.75q-.72,2.42-1.52,4.79t-1.63,4.59c-.56,1.48-1.08,2.8-1.57,3.95-.49-1.15-1-2.47-1.57-3.95s-1.09-3-1.63-4.59-1-3.18-1.52-4.79-.89-3.12-1.24-4.54h-4.35a115,115,0,0,0,4,12.18q2.28,5.82,4.42,10.44h3.65q2.13-4.62,4.42-10.44a115,115,0,0,0,4-12.18h-4.17C418.51,280.63,418.1,282.14,417.62,283.75Z"/><path class="cls-4" d="M441.59,281.06a6.63,6.63,0,0,0-2.7-1.79,11.76,11.76,0,0,0-4.11-.63,22.34,22.34,0,0,0-4,.33,12.74,12.74,0,0,0-2.61.67l.48,3.35a12.52,12.52,0,0,1,2.24-.59,19.92,19.92,0,0,1,3.5-.28,6,6,0,0,1,2.55.46,3.93,3.93,0,0,1,1.54,1.22,4.31,4.31,0,0,1,.78,1.74,8.77,8.77,0,0,1,.22,2v1.13c-.12,0-.32-.08-.61-.13l-1-.2c-.39-.07-.8-.13-1.24-.17a11,11,0,0,0-1.26-.07,16.69,16.69,0,0,0-3.66.39,9.54,9.54,0,0,0-3,1.22,6.09,6.09,0,0,0-2.07,2.18,6.49,6.49,0,0,0-.76,3.21,7.73,7.73,0,0,0,.66,3.35,5.59,5.59,0,0,0,1.82,2.24,7.74,7.74,0,0,0,2.79,1.24,14.86,14.86,0,0,0,3.52.4c.9,0,1.8,0,2.72-.11l2.54-.24c.79-.09,1.49-.18,2.11-.29l1.46-.23V287.3a13.15,13.15,0,0,0-.44-3.5A6.69,6.69,0,0,0,441.59,281.06Zm-2.07,17.55a12.55,12.55,0,0,1-1.85.24c-.74,0-1.59.06-2.54.06a7.22,7.22,0,0,1-3.79-.85,3.23,3.23,0,0,1-1.39-3,3,3,0,0,1,.57-1.89,3.82,3.82,0,0,1,1.41-1.13,6,6,0,0,1,1.87-.55,16.77,16.77,0,0,1,1.94-.13,14.71,14.71,0,0,1,2.37.16,5,5,0,0,1,1.41.37Z"/><path class="cls-4" d="M466.77,281.62a7.05,7.05,0,0,0-2.85-2.13,11.41,11.41,0,0,0-4.48-.76,32,32,0,0,0-5.3.39c-1.54.26-2.77.51-3.7.74v22h4v-19.1l.72-.13c.34-.06.71-.11,1.13-.15s.87-.08,1.33-.11.91,0,1.35,0a7.58,7.58,0,0,1,2.7.42,3.71,3.71,0,0,1,1.74,1.33,6,6,0,0,1,.93,2.39,19.1,19.1,0,0,1,.28,3.56v11.84h4V289.12a19,19,0,0,0-.44-4.21A8.23,8.23,0,0,0,466.77,281.62Z"/><path class="cls-4" d="M488.94,298.48a13.11,13.11,0,0,1-2.92.3,8.58,8.58,0,0,1-3.39-.59,5.69,5.69,0,0,1-2.28-1.67,6.9,6.9,0,0,1-1.31-2.61,12.6,12.6,0,0,1-.41-3.35q0-4.1,1.8-6.22a6.45,6.45,0,0,1,5.2-2.13,11.6,11.6,0,0,1,2.55.26,10,10,0,0,1,2.1.69l.92-3.43a14.2,14.2,0,0,0-2.92-.83,18.35,18.35,0,0,0-3-.26,11.12,11.12,0,0,0-4.5.89,9.73,9.73,0,0,0-3.42,2.48,11.35,11.35,0,0,0-2.15,3.77,14.31,14.31,0,0,0-.76,4.78,15.5,15.5,0,0,0,.69,4.76,10.17,10.17,0,0,0,2.11,3.72,9.65,9.65,0,0,0,3.48,2.44,12.33,12.33,0,0,0,4.81.87,16.4,16.4,0,0,0,1.81-.11c.62-.07,1.21-.16,1.76-.26a14.12,14.12,0,0,0,1.48-.35,4.73,4.73,0,0,0,1-.41l-.57-3.4A10.4,10.4,0,0,1,488.94,298.48Z"/><path class="cls-4" d="M498.16,269.81a2.59,2.59,0,0,0-1.85.72,2.84,2.84,0,0,0,0,3.87,2.74,2.74,0,0,0,3.7,0,2.84,2.84,0,0,0,0-3.87A2.61,2.61,0,0,0,498.16,269.81Z"/><rect class="cls-4" x="496.16" y="279.21" width="4.04" height="22.62"/><path class="cls-4" d="M523.76,281.62a7.05,7.05,0,0,0-2.85-2.13,11.41,11.41,0,0,0-4.48-.76,32.18,32.18,0,0,0-5.31.39c-1.54.26-2.77.51-3.7.74v22h4.05v-19.1l.72-.13c.33-.06.71-.11,1.13-.15s.86-.08,1.32-.11.92,0,1.35,0a7.5,7.5,0,0,1,2.7.42,3.67,3.67,0,0,1,1.74,1.33,5.89,5.89,0,0,1,.94,2.39,20,20,0,0,1,.28,3.56v11.84h4V289.12a19,19,0,0,0-.43-4.21A8.23,8.23,0,0,0,523.76,281.62Z"/><path class="cls-4" d="M542.35,278.73a11.87,11.87,0,0,0-4.61.85,9.79,9.79,0,0,0-3.46,2.35,10.11,10.11,0,0,0-2.15,3.56,14.88,14.88,0,0,0,0,9.42,9.7,9.7,0,0,0,2.13,3.41,8.3,8.3,0,0,0,3.15,2,11.36,11.36,0,0,0,3.85.65,10.85,10.85,0,0,0,5.52-1.44v1c0,2.09-.52,3.61-1.58,4.57s-2.79,1.43-5.2,1.43a17.67,17.67,0,0,1-3.68-.37,18.21,18.21,0,0,1-3-.84l-.74,3.52a24.17,24.17,0,0,0,3.29.83,22.39,22.39,0,0,0,4,.34c3.66,0,6.38-.78,8.18-2.34s2.7-4.09,2.7-7.57V279.9c-1-.23-2.14-.48-3.55-.76A26.46,26.46,0,0,0,542.35,278.73ZM546.79,296a7.28,7.28,0,0,1-2.13,1.06,9.05,9.05,0,0,1-3,.46,6,6,0,0,1-2.28-.44,5.17,5.17,0,0,1-2-1.34,6.53,6.53,0,0,1-1.35-2.31,10,10,0,0,1-.5-3.35,8.6,8.6,0,0,1,1.76-5.65,6.17,6.17,0,0,1,5-2.14,19.66,19.66,0,0,1,2.76.16,14.68,14.68,0,0,1,1.63.32Z"/><path class="cls-4" d="M583,280.21a11.31,11.31,0,0,0-10-.66,9.16,9.16,0,0,0-3.19,2.44,10.7,10.7,0,0,0-2,3.74,16.12,16.12,0,0,0-.68,4.79,14.16,14.16,0,0,0,.81,4.93,10.28,10.28,0,0,0,2.28,3.72,10.05,10.05,0,0,0,3.57,2.35,12.7,12.7,0,0,0,4.7.83,28.6,28.6,0,0,0,5-.39,36.12,36.12,0,0,0,3.57-.79v-32.4h-4Zm0,18.09a12.28,12.28,0,0,1-1.72.33,21.16,21.16,0,0,1-2.76.15,6.74,6.74,0,0,1-5.22-2.15,8.79,8.79,0,0,1-2-6.11,14.84,14.84,0,0,1,.35-3.27,7.38,7.38,0,0,1,1.13-2.63,5.49,5.49,0,0,1,2-1.74,6.54,6.54,0,0,1,3-.63,8,8,0,0,1,3,.57A8.2,8.2,0,0,1,583,284Z"/><rect class="cls-4" x="594.25" y="279.21" width="4.04" height="22.62"/><path class="cls-4" d="M596.25,269.81a2.59,2.59,0,0,0-1.85.72,2.84,2.84,0,0,0,0,3.87,2.74,2.74,0,0,0,3.7,0,2.84,2.84,0,0,0,0-3.87A2.61,2.61,0,0,0,596.25,269.81Z"/><path class="cls-4" d="M615.21,278.73a11.87,11.87,0,0,0-4.61.85,9.79,9.79,0,0,0-3.46,2.35,10.11,10.11,0,0,0-2.15,3.56,14.88,14.88,0,0,0,0,9.42,9.7,9.7,0,0,0,2.13,3.41,8.3,8.3,0,0,0,3.15,2,11.36,11.36,0,0,0,3.85.65,10.85,10.85,0,0,0,5.52-1.44v1c0,2.09-.52,3.61-1.58,4.57s-2.79,1.43-5.2,1.43a17.67,17.67,0,0,1-3.68-.37,18.21,18.21,0,0,1-3-.84l-.74,3.52a24.17,24.17,0,0,0,3.29.83,22.39,22.39,0,0,0,4,.34c3.66,0,6.38-.78,8.18-2.34s2.7-4.09,2.7-7.57V279.9c-1-.23-2.14-.48-3.55-.76A26.46,26.46,0,0,0,615.21,278.73ZM619.65,296a7.28,7.28,0,0,1-2.13,1.06,9.05,9.05,0,0,1-3,.46,6,6,0,0,1-2.28-.44,5.17,5.17,0,0,1-2-1.34,6.84,6.84,0,0,1-1.35-2.31,10,10,0,0,1-.5-3.35,8.6,8.6,0,0,1,1.76-5.65,6.17,6.17,0,0,1,5-2.14,19.66,19.66,0,0,1,2.76.16,14.68,14.68,0,0,1,1.63.32Z"/><rect class="cls-4" x="630.92" y="279.21" width="4.04" height="22.62"/><path class="cls-4" d="M632.92,269.81a2.59,2.59,0,0,0-1.85.72,2.84,2.84,0,0,0,0,3.87,2.74,2.74,0,0,0,3.7,0,2.84,2.84,0,0,0,0-3.87A2.61,2.61,0,0,0,632.92,269.81Z"/><path class="cls-4" d="M653.08,298.32a8.48,8.48,0,0,1-2.94.42,5.87,5.87,0,0,1-1.82-.26,2.85,2.85,0,0,1-1.31-.89,4.19,4.19,0,0,1-.78-1.74A12.26,12.26,0,0,1,646,293V282.6h8.57v-3.39H646v-7l-4.05.7v20.18a18.78,18.78,0,0,0,.37,4,7.27,7.27,0,0,0,1.28,2.9,5.58,5.58,0,0,0,2.42,1.76,10.59,10.59,0,0,0,3.81.59,12.2,12.2,0,0,0,3.47-.46,16.43,16.43,0,0,0,2.14-.76l-.79-3.35Z"/><path class="cls-4" d="M674.05,281.06a6.7,6.7,0,0,0-2.7-1.79,11.76,11.76,0,0,0-4.11-.63,22.34,22.34,0,0,0-4,.33,12.74,12.74,0,0,0-2.61.67l.48,3.35a12.52,12.52,0,0,1,2.24-.59,19.92,19.92,0,0,1,3.5-.28,6,6,0,0,1,2.55.46A3.93,3.93,0,0,1,671,283.8a4.31,4.31,0,0,1,.78,1.74,8.77,8.77,0,0,1,.22,2v1.13c-.12,0-.32-.08-.61-.13l-1-.2c-.39-.07-.81-.13-1.24-.17a11.13,11.13,0,0,0-1.26-.07,16.69,16.69,0,0,0-3.66.39,9.54,9.54,0,0,0-3,1.22,6.09,6.09,0,0,0-2.07,2.18,6.38,6.38,0,0,0-.76,3.21,7.88,7.88,0,0,0,.65,3.35,5.7,5.7,0,0,0,1.83,2.24,7.76,7.76,0,0,0,2.78,1.24,15,15,0,0,0,3.53.4c.9,0,1.8,0,2.72-.11l2.54-.24c.78-.09,1.49-.18,2.11-.29l1.46-.23V287.3a13.15,13.15,0,0,0-.44-3.5A6.69,6.69,0,0,0,674.05,281.06ZM672,298.61a12.55,12.55,0,0,1-1.85.24c-.74,0-1.59.06-2.54.06a7.22,7.22,0,0,1-3.79-.85,3.23,3.23,0,0,1-1.39-3,3,3,0,0,1,.57-1.89,3.82,3.82,0,0,1,1.41-1.13,5.9,5.9,0,0,1,1.87-.55,16.77,16.77,0,0,1,1.94-.13,14.71,14.71,0,0,1,2.37.16,5,5,0,0,1,1.41.37Z"/><path class="cls-4" d="M687.6,298a2.36,2.36,0,0,1-.57-1,6.33,6.33,0,0,1-.17-1.65V268.77h-4.05v27.14a6.31,6.31,0,0,0,1.57,4.74c1,1,2.81,1.55,5.3,1.61l.57-3.39a11.28,11.28,0,0,1-1.61-.33A2.44,2.44,0,0,1,687.6,298Z"/><path class="cls-4" d="M716.22,279c-.44-.07-.88-.13-1.33-.18s-.85-.06-1.19-.06a22.58,22.58,0,0,0-4.79.46,28.46,28.46,0,0,0-3.57,1v21.67h4v-19l1.46-.33a10.52,10.52,0,0,1,2.24-.24,13.89,13.89,0,0,1,2.85.24,15,15,0,0,1,1.58.41l.7-3.52a6.22,6.22,0,0,0-.81-.19C717.05,279.11,716.65,279,716.22,279Z"/><path class="cls-4" d="M724.4,269.81a2.57,2.57,0,0,0-1.85.72,2.84,2.84,0,0,0,0,3.87,2.72,2.72,0,0,0,3.69,0,2.82,2.82,0,0,0,0-3.87A2.57,2.57,0,0,0,724.4,269.81Z"/><rect class="cls-4" x="722.39" y="279.21" width="4.04" height="22.62"/><path class="cls-4" d="M743.36,278.73a11.84,11.84,0,0,0-4.61.85,9.7,9.7,0,0,0-3.46,2.35,10.11,10.11,0,0,0-2.15,3.56,13.53,13.53,0,0,0-.74,4.55,13.67,13.67,0,0,0,.78,4.87,9.7,9.7,0,0,0,2.13,3.41,8.34,8.34,0,0,0,3.16,2,11.32,11.32,0,0,0,3.85.65,10.34,10.34,0,0,0,3.5-.54,10.67,10.67,0,0,0,2-.9v1a5.88,5.88,0,0,1-1.59,4.57c-1,1-2.79,1.43-5.19,1.43a17.67,17.67,0,0,1-3.68-.37,18.21,18.21,0,0,1-3-.84l-.74,3.52a23.79,23.79,0,0,0,3.29.83,22.39,22.39,0,0,0,4,.34q5.47,0,8.18-2.34t2.69-7.57V279.9c-1-.23-2.13-.48-3.54-.76A26.46,26.46,0,0,0,743.36,278.73ZM747.8,296a7.28,7.28,0,0,1-2.13,1.06,9.05,9.05,0,0,1-3,.46,6,6,0,0,1-2.28-.44,5.09,5.09,0,0,1-2-1.34,6.53,6.53,0,0,1-1.35-2.31,10,10,0,0,1-.5-3.35,8.6,8.6,0,0,1,1.76-5.65,6.16,6.16,0,0,1,5-2.14,19.82,19.82,0,0,1,2.77.16,14.68,14.68,0,0,1,1.63.32Z"/><path class="cls-4" d="M775.4,281.62a7.05,7.05,0,0,0-2.85-2.13,11.41,11.41,0,0,0-4.48-.76,13.92,13.92,0,0,0-2.55.24,13.74,13.74,0,0,0-2.41.67V268.77h-4.05v33.06h4.05V283a6.62,6.62,0,0,1,.72-.21c.33-.09.71-.17,1.13-.24s.86-.14,1.33-.2a10.4,10.4,0,0,1,1.34-.09,7.5,7.5,0,0,1,2.7.42,3.62,3.62,0,0,1,1.74,1.33,5.89,5.89,0,0,1,.94,2.39,20,20,0,0,1,.28,3.56v11.84h4V289.12a19,19,0,0,0-.43-4.21A8.23,8.23,0,0,0,775.4,281.62Z"/><path class="cls-4" d="M795.06,298.32a8.48,8.48,0,0,1-2.94.42,5.87,5.87,0,0,1-1.82-.26,2.9,2.9,0,0,1-1.31-.89,4.19,4.19,0,0,1-.78-1.74A12.85,12.85,0,0,1,788,293V282.6h8.57v-3.39H788v-7l-4.05.7v20.18a19.46,19.46,0,0,0,.37,4,7.14,7.14,0,0,0,1.29,2.9,5.55,5.55,0,0,0,2.41,1.76,10.59,10.59,0,0,0,3.81.59,12.32,12.32,0,0,0,3.48-.46,16.72,16.72,0,0,0,2.13-.76l-.79-3.35Z"/><path class="cls-4" d="M814.29,291.39a8.68,8.68,0,0,0-2.16-1.37c-.84-.4-1.79-.79-2.87-1.2-.81-.29-1.5-.57-2.08-.83a7.3,7.3,0,0,1-1.46-.84,3.09,3.09,0,0,1-.87-1,2.83,2.83,0,0,1-.28-1.3,2.23,2.23,0,0,1,1.26-2.11,6.15,6.15,0,0,1,2.95-.68,13.42,13.42,0,0,1,3.35.37,10.71,10.71,0,0,1,2,.72l.74-3.48a9.42,9.42,0,0,0-1-.3c-.42-.12-.91-.23-1.46-.33s-1.14-.19-1.78-.26a17.65,17.65,0,0,0-1.92-.11,9.48,9.48,0,0,0-6,1.76,5.77,5.77,0,0,0-2.22,4.77,5.35,5.35,0,0,0,1.91,4.35,8.76,8.76,0,0,0,2.07,1.28c.8.36,1.63.72,2.5,1.07a18.28,18.28,0,0,1,3.87,1.95,2.77,2.77,0,0,1,1.18,2.35,2.21,2.21,0,0,1-1.2,2.09,8,8,0,0,1-3.67.65,12.73,12.73,0,0,1-4-.52l-2.22-.78-.74,3.48c.41.17,1.18.43,2.31.76a17.45,17.45,0,0,0,4.7.5,11.6,11.6,0,0,0,6.63-1.61,5.39,5.39,0,0,0,2.33-4.74,6.86,6.86,0,0,0-.48-2.72A5.29,5.29,0,0,0,814.29,291.39Z"/><path class="cls-4" d="M362.91,212.32a3.28,3.28,0,0,0,0,4.25,2.75,2.75,0,0,0,1.84.66,2.52,2.52,0,0,0,1.9-.74,3.37,3.37,0,0,0,0-4.11,2.52,2.52,0,0,0-1.88-.72A2.7,2.7,0,0,0,362.91,212.32Z"/><path class="cls-4" d="M370.26,212.39a2.89,2.89,0,0,0-.69,2.05,2.86,2.86,0,0,0,.7,2.05,2.55,2.55,0,0,0,1.91.74,2.49,2.49,0,0,0,1.94-.77,3.33,3.33,0,0,0,0-4,2.49,2.49,0,0,0-1.94-.77A2.57,2.57,0,0,0,370.26,212.39Z"/><path class="cls-4" d="M393.48,252.59a2.91,2.91,0,0,0,.67-2,3,3,0,0,0-.67-2,2.49,2.49,0,0,0-1.94-.77,2.52,2.52,0,0,0-1.92.74,3.37,3.37,0,0,0,0,4.1,2.58,2.58,0,0,0,1.91.73A2.49,2.49,0,0,0,393.48,252.59Z"/><path class="cls-4" d="M384.11,253.36a2.55,2.55,0,0,0,1.9-.73,2.89,2.89,0,0,0,.69-2,2.81,2.81,0,0,0-.71-2.06,2.52,2.52,0,0,0-1.88-.73,2.75,2.75,0,0,0-1.84.66,2.79,2.79,0,0,0,1.84,4.91Z"/><path class="cls-4" d="M462.09,219.81A2.48,2.48,0,0,0,464,219a3.33,3.33,0,0,0,0-4,2.48,2.48,0,0,0-1.93-.77,2.52,2.52,0,0,0-1.92.74,3.33,3.33,0,0,0,0,4.1A2.56,2.56,0,0,0,462.09,219.81Z"/><path class="cls-4" d="M454.65,219.81a2.49,2.49,0,0,0,1.9-.74,3.35,3.35,0,0,0,0-4.11,2.58,2.58,0,0,0-1.89-.72,2.73,2.73,0,0,0-1.84.66,3.32,3.32,0,0,0,0,4.25A2.73,2.73,0,0,0,454.65,219.81Z"/><path class="cls-4" d="M465.65,223.5h-5.83c-3.68,0-6.62,1-8.76,3a10.76,10.76,0,0,0-3.22,8.16,11.37,11.37,0,0,0,.58,3.55,8.58,8.58,0,0,0,1.42,2.74H444a7.05,7.05,0,0,1-2.93-.52,5.08,5.08,0,0,1-1.93-1.8,14.15,14.15,0,0,0,.88-5,11.15,11.15,0,0,0-1.12-5,8,8,0,0,0-3.2-3.45,9.42,9.42,0,0,0-4.83-1.22,12.19,12.19,0,0,0-4.31.79,12.73,12.73,0,0,0-3.67,2.14l0,.06a15,15,0,0,0-1.57,6.93,20.82,20.82,0,0,0,1.5,7.15H389.81V223.5h-4.22V241h-11v-20.2h-4.07v2.71h-2.63a12.5,12.5,0,0,0-8.73,3,10.55,10.55,0,0,0-3.25,8.15,9.6,9.6,0,0,0,2.94,7.46c1.95,1.77,4.7,2.67,8.18,2.67h63a10.9,10.9,0,0,0,3.86-.69,8.62,8.62,0,0,0,3.11-2,9,9,0,0,0,3,2.07,10.73,10.73,0,0,0,3.71.63h22Zm-13.59,11.16a7.19,7.19,0,0,1,2.07-5.48,8.22,8.22,0,0,1,5.82-1.94h1.64V241h-3.85C453.92,241,452.06,238.92,452.06,234.66Zm-16.36-1.07a8.91,8.91,0,0,1-1.48,5.53A5.13,5.13,0,0,1,430,241h-2.91a21.3,21.3,0,0,1-1.22-4,21.7,21.7,0,0,1-.35-3.88c0-.74,0-1.43.08-2.05a6.6,6.6,0,0,1,.41-1.73,8.68,8.68,0,0,1,2.25-1.22,7.51,7.51,0,0,1,2.6-.47,4.42,4.42,0,0,1,3.45,1.65A6.4,6.4,0,0,1,435.7,233.59Zm-65.23-6.35V241h-3.58a7.14,7.14,0,0,1-5.05-1.65,6.2,6.2,0,0,1-1.76-4.76,7.13,7.13,0,0,1,2-5.41,8.26,8.26,0,0,1,5.84-1.93Z"/><path class="cls-4" d="M490.05,241H479.89V223.5h-4v22.29a7,7,0,0,1-1.05,4,3.28,3.28,0,0,1-2.86,1.49,7,7,0,0,1-1.43-.13,8.35,8.35,0,0,1-1.68-.59l-.19-.08-1.25,3.24.15.08a9.84,9.84,0,0,0,4.48,1.24,7.08,7.08,0,0,0,5.85-2.55,10.91,10.91,0,0,0,2-6.95v-.83h14.38V211.68h-4.22Z"/><rect class="cls-4" x="502.74" y="211.68" width="4.22" height="33.07"/><path class="cls-4" d="M548.33,226.53a10.67,10.67,0,0,0-3.28,8.22c0,3.21.86,5.71,2.57,7.42s4.2,2.58,7.41,2.58h3.77v.1a6.18,6.18,0,0,1-1.79,4.89c-1.19,1-3.19,1.58-5.92,1.58h-8.7a6.82,6.82,0,0,1-5.09-1.83,7.14,7.14,0,0,1-1.8-5.23,29.32,29.32,0,0,1,1.46-9.82l.09-.27h-4l0,.13a28.7,28.7,0,0,0-1.78,10.21,10.61,10.61,0,0,0,2.79,7.72,10.2,10.2,0,0,0,7.6,2.85h10.16c7.35,0,11.08-3.46,11.08-10.28V223.5H557A12.34,12.34,0,0,0,548.33,226.53Zm10.47.71V241H555a5.57,5.57,0,0,1-4.27-1.5c-.94-1-1.41-2.61-1.41-4.79a7.25,7.25,0,0,1,2.07-5.5,8.17,8.17,0,0,1,5.81-2Z"/><path class="cls-4" d="M557.25,215a3.37,3.37,0,0,0,0,4.1,2.58,2.58,0,0,0,1.91.73,2.45,2.45,0,0,0,1.93-.77,3.29,3.29,0,0,0,0-4,2.45,2.45,0,0,0-1.93-.77A2.54,2.54,0,0,0,557.25,215Z"/><path class="cls-4" d="M549.9,214.9a3.28,3.28,0,0,0,0,4.25,2.7,2.7,0,0,0,1.84.66,2.52,2.52,0,0,0,1.9-.74,3.37,3.37,0,0,0,0-4.11,2.56,2.56,0,0,0-1.88-.72A2.7,2.7,0,0,0,549.9,214.9Z"/><path class="cls-4" d="M630.54,219.81a2.49,2.49,0,0,0,1.94-.77,3.33,3.33,0,0,0,0-4,2.49,2.49,0,0,0-1.94-.77,2.54,2.54,0,0,0-1.92.74,3.35,3.35,0,0,0,0,4.1A2.54,2.54,0,0,0,630.54,219.81Z"/><path class="cls-4" d="M625,219.07a3.39,3.39,0,0,0,0-4.11,2.6,2.6,0,0,0-1.89-.72,2.79,2.79,0,1,0,0,5.57A2.51,2.51,0,0,0,625,219.07Z"/><path class="cls-4" d="M663.15,244.75h9.27V211.68H668.2V241h-7.84c-1.35-1.4-2.36-4.32-3-8.69a16.31,16.31,0,0,0-1.61-5.39,7.07,7.07,0,0,0-2.88-2.88,9.48,9.48,0,0,0-4.48-1,17.19,17.19,0,0,0-4.09.47,12.63,12.63,0,0,0-3.79,1.68l-.15.1,1.66,3.3.18-.09a13.22,13.22,0,0,1,6.15-1.7,4.15,4.15,0,0,1,3.43,1.45,11.4,11.4,0,0,1,1.79,5.08c.65,3.85,1.45,6.36,2.46,7.64H634.1V223.5h-5.83a12.45,12.45,0,0,0-8.73,3,10.69,10.69,0,0,0-3.24,8.21,11.65,11.65,0,0,0,.57,3.55A8.8,8.8,0,0,0,618.3,241H587.24V223.5h-5.83a12.34,12.34,0,0,0-8.72,3.05,10.68,10.68,0,0,0-3.28,8.2c0,3.21.87,5.71,2.57,7.42a9.78,9.78,0,0,0,7.23,2.58h4v1a5.29,5.29,0,0,1-1.6,4,6.25,6.25,0,0,1-4.44,1.51,10.07,10.07,0,0,1-3.19-.48,17.63,17.63,0,0,1-2.83-1.22l-.16-.09-1.92,3.21.16.1a14,14,0,0,0,7.86,2.24c3.2,0,5.71-.84,7.47-2.51a9.21,9.21,0,0,0,2.66-7v-.83h75.91ZM620.52,234.7a7.25,7.25,0,0,1,2.06-5.49,8.09,8.09,0,0,1,5.82-2h1.65V241H626.2C622.38,241,620.52,238.94,620.52,234.7Zm-37.33-7.46V241h-3.86a5.59,5.59,0,0,1-4.27-1.5,6.9,6.9,0,0,1-1.41-4.79,7.25,7.25,0,0,1,2.07-5.5,8.18,8.18,0,0,1,5.82-2Z"/><rect class="cls-4" x="680.89" y="211.68" width="4.22" height="33.07"/><path class="cls-4" d="M716,219.81a2.48,2.48,0,0,0,1.93-.77,3.33,3.33,0,0,0,0-4,2.48,2.48,0,0,0-1.93-.77A2.52,2.52,0,0,0,714,215a3.33,3.33,0,0,0,0,4.1A2.56,2.56,0,0,0,716,219.81Z"/><path class="cls-4" d="M737.13,244.75h19.2V223.5h-4.22V241H717.32V223.5h-4v22.29a7,7,0,0,1-1.06,4,3.26,3.26,0,0,1-2.86,1.49,7.17,7.17,0,0,1-1.43-.13,8.57,8.57,0,0,1-1.68-.59l-.19-.08-1.25,3.24.16.08a9.77,9.77,0,0,0,4.48,1.24,7.06,7.06,0,0,0,5.84-2.55,10.91,10.91,0,0,0,2-6.95v-.83h19.81Z"/><path class="cls-4" d="M754.29,247.79a2.52,2.52,0,0,0-1.92.74,2.82,2.82,0,0,0-.7,2.05,2.85,2.85,0,0,0,.71,2,2.56,2.56,0,0,0,1.91.73,2.48,2.48,0,0,0,1.93-.77,3.33,3.33,0,0,0,0-4A2.48,2.48,0,0,0,754.29,247.79Z"/><path class="cls-4" d="M745,248.45a2.79,2.79,0,0,0,1.84,4.91,2.52,2.52,0,0,0,1.9-.73,2.89,2.89,0,0,0,.7-2,2.81,2.81,0,0,0-.71-2.06,2.55,2.55,0,0,0-1.89-.73A2.75,2.75,0,0,0,745,248.45Z"/><path class="cls-4" d="M767.85,215a3.33,3.33,0,0,0,0,4.1,2.56,2.56,0,0,0,1.91.73,2.48,2.48,0,0,0,1.93-.77,3.33,3.33,0,0,0,0-4,2.48,2.48,0,0,0-1.93-.77A2.52,2.52,0,0,0,767.85,215Z"/><path class="cls-4" d="M792.83,244.21a15.9,15.9,0,0,0,3.94.54h16.89V223.5h-4.22V241H796.6a13.06,13.06,0,0,1-4.34-.76,17.66,17.66,0,0,0,5.42-6.27,18.22,18.22,0,0,0,2.08-8.49v-.11l-.09-.06a17.64,17.64,0,0,0-4.86-2.31,16.4,16.4,0,0,0-11.61.4,18.65,18.65,0,0,0-5.36,3.5l-.08.08,0,.1a19.25,19.25,0,0,0,1.6,5,25.94,25.94,0,0,0,3,4.91,18.44,18.44,0,0,0,3.14,3.28,13.7,13.7,0,0,1-4.71.71h-9.63V223.5h-4v22.29a7,7,0,0,1-1.06,4,3.26,3.26,0,0,1-2.86,1.49,7.17,7.17,0,0,1-1.43-.13,8.57,8.57,0,0,1-1.68-.59l-.19-.08-1.25,3.24.16.08a9.77,9.77,0,0,0,4.48,1.24,7.06,7.06,0,0,0,5.84-2.55,10.91,10.91,0,0,0,2-6.95v-.83h9.67a16.25,16.25,0,0,0,8-2.11A18.6,18.6,0,0,0,792.83,244.21Zm.78-10.85a15.74,15.74,0,0,1-4.75,4.79,18.57,18.57,0,0,1-4.15-4.46,16.5,16.5,0,0,1-2.37-5.43,12.1,12.1,0,0,1,13.06-.87A13.1,13.1,0,0,1,793.61,233.36Z"/><path class="cls-4" d="M817,215a2.49,2.49,0,0,0-1.94-.77,2.54,2.54,0,0,0-1.92.74,2.86,2.86,0,0,0-.69,2.05,2.89,2.89,0,0,0,.7,2.05,2.59,2.59,0,0,0,1.91.73A2.49,2.49,0,0,0,817,219a3.33,3.33,0,0,0,0-4Z"/><path class="cls-4" d="M805.74,214.9a3.28,3.28,0,0,0,0,4.25,2.7,2.7,0,0,0,1.84.66,2.52,2.52,0,0,0,1.9-.74,3.37,3.37,0,0,0,0-4.11,2.56,2.56,0,0,0-1.88-.72A2.7,2.7,0,0,0,805.74,214.9Z"/></svg>